<svg xmlns="http://www.w3.org/2000/svg" width="5184" height="1728" viewBox="0 0 1296 432">
  <defs>
    <style>
      .cls-1 {
        font-size: 92px;
        fill: #9a919b;
        text-anchor: middle;
        font-family: Bahnschrift;
        font-weight: 700;
      }

      .cls-2 {
        fill: #98a2a2;
        font-size: 86px;
      }

      .cls-3 {
        fill: #bae1ff;
        stroke: #bae1ff;
      }

      .cls-3, .cls-4, .cls-5 {
        stroke-linecap: round;
        stroke-linejoin: bevel;
        stroke-width: 1px;
      }

      .cls-3, .cls-4, .cls-5, .cls-6, .cls-7, .cls-8 {
        fill-rule: evenodd;
      }

      .cls-4 {
        fill: #ffdfba;
        stroke: #ffdfba;
      }

      .cls-5 {
        fill: #ffb3ba;
        stroke: #ffb3ba;
      }

      .cls-6, .cls-8 {
        fill: #fff;
      }

      .cls-6 {
        stroke: #b2ada6;
        stroke-width: 10.84px;
      }

      .cls-7 {
        fill: none;
        stroke: #caffd8;
        stroke-width: 15.33px;
      }
    </style>
  </defs>
  <text id="PRISM_MEDIA" data-name="PRISM MEDIA" class="cls-1" transform="translate(1018.51 198.258) scale(1.002 0.978)"><tspan x="0">PRISM</tspan><tspan class="cls-2" x="0" dy="103.2">MEDIA</tspan></text>
  <path id="Triangle" class="cls-3" d="M312.817,294.877c0-4.919.5-6.336,7.538-21.34l7.62-16.006h11.017l4.805,10.42c2.65,5.752,5.052,10.42,5.384,10.42,0.248-.083,2.65-4.668,5.218-10.253l4.722-10.17,5.632-.25,5.633-.167,9.94,21.674,5.135-10.837,5.219-10.837h10.851l5.218,10.837,5.136,10.837,10.106-21.674h11.016l5.053,10.587,5.053,10.67,4.97-10.587,5.053-10.67h11.017l4.887,10.42c2.65,5.752,5.053,10.42,5.3,10.42s2.651-4.668,5.3-10.42l4.887-10.42h11.1l4.8,10.42c2.651,5.752,5.053,10.42,5.3,10.42s2.65-4.584,5.218-10.253l4.8-10.17,11.183-.5,10.106,21.34,5.135-10.587,5.053-10.67h5.633l5.549,0.084,4.97,10.753c2.734,6,5.136,10.837,5.384,10.837s2.651-4.835,5.385-10.837l4.97-10.753,5.632-.084h5.55l5.136,10.837,5.052,10.837,5.053-10.837,5.053-10.92,11.182,0.5,4.8,10.17c2.568,5.669,4.97,10.253,5.218,10.253s2.651-4.668,5.3-10.42l4.8-10.42h11.1l4.888,10.42c2.65,5.752,5.052,10.42,5.3,10.42s2.651-4.668,5.3-10.42l4.887-10.42h11.017l5.053,10.67,4.97,10.587,5.053-10.587,5.052-10.67H715.55l10.106,21.674,5.135-10.837,5.219-10.837h10.851l5.218,10.837,5.136,10.837,9.94-21.674,5.715,0.167,5.633,0.25,4.722,10.17c2.567,5.585,4.887,10.253,5.135,10.253,0.332,0,2.734-4.668,5.384-10.42l4.8-10.419h11.016l7.621,16c7.041,15,7.538,16.421,7.538,21.34v5.168H814.2l-4.8-10.42c-2.651-5.752-5.053-10.42-5.3-10.42s-2.65,4.585-5.218,10.253l-4.8,10.17-11.183.5-10.105-21.34-5.136,10.67L762.6,300.045h-5.632l-5.55-.083-9.94-21.674-5.136,10.92-5.135,10.837H720.189l-5.053-10.837-5.053-10.92-5.135,10.92-5.219,10.837h-10.6l-4.888-10.42c-2.65-5.752-5.135-10.42-5.384-10.42s-2.65,4.668-5.3,10.42l-4.8,10.42h-11.1l-4.8-10.42c-2.651-5.752-5.053-10.42-5.3-10.42s-2.733,4.668-5.384,10.42l-4.887,10.42H626.256l-4.8-10.42c-2.651-5.752-5.053-10.42-5.384-10.42-0.249,0-2.568,4.668-5.136,10.253l-4.721,10.17-5.633.25-5.715.167-9.94-21.673-5.136,10.836-5.218,10.837h-11.6l-5.218-10.837-5.136-10.836-9.94,21.673-5.715-.167-5.633-.25-4.721-10.17c-2.568-5.585-4.888-10.253-5.136-10.253-0.331,0-2.734,4.668-5.384,10.42l-4.8,10.42H500.268l-4.887-10.42c-2.651-5.752-5.136-10.42-5.385-10.42s-2.65,4.668-5.3,10.42l-4.8,10.42h-11.1l-4.8-10.42c-2.651-5.752-5.053-10.42-5.3-10.42s-2.734,4.668-5.385,10.42l-4.887,10.42h-10.6l-5.219-10.837-5.135-10.92-5.053,10.92-5.053,10.837H406.335L401.2,289.208l-5.136-10.92-9.94,21.674-5.55.083h-5.632l-5.053-10.587-5.136-10.67-10.1,21.34-11.183-.5-4.8-10.17c-2.568-5.668-4.97-10.253-5.219-10.253s-2.65,4.668-5.3,10.42l-4.8,10.42h-10.52v-5.168h0Z"/>
  <path id="Saw" class="cls-4" d="M333.74,225.533l-10.089-10.374v9.969l-0.083,9.888H312.817L312.982,215l0.249-20.1,10.089-.486L333.409,204.7,343.416,215V194.492H354l20.427,21.153,0.827-20.748,9.841-.486,21.171,20.748V194.492h11.247l10.089,9.969,10.007,9.969,0.248-9.726,0.248-9.807,9.841-.486,20.344,19.938V194.492h10.337l21.088,20.667v-9.888c0-11.022-.165-10.779,6.451-10.779,3.8,0,3.887.081,14.389,10.293l10.586,10.374V194.492h11.164l20.675,20.262,0.413-9.888,0.414-9.969,9.841-.486,20.344,19.938V194.492h10.5l10.668,10.617,10.668,10.536,0.827-20.748,10.089-.486,10.5,10.779,10.42,10.78V194.492h10.337l20.262,19.857v-9.483c0-10.536-.083-10.374,6.45-10.374,3.8,0,3.887.081,14.39,10.293L719.7,215.159V194.492h9.676l10.668,10.617,10.668,10.536,0.827-20.748,9.841-.486,21.171,20.748V194.492h10.338L823.9,224.885v10.131H813.558L793.3,215.159v9.888c0,11.022.166,10.779-6.45,10.779-3.887,0-3.97-.081-14.225-10.131l-10.337-10.131-0.413,9.888-0.414,9.969-10.668.486-20.261-19.856-0.248,9.644-0.248,9.726-9.842.486L699.02,215.159v19.857H688.683l-20.261-19.857v9.888c0,11.1.248,10.779-6.947,10.779h-4.383L637.41,215.24,637,225.371l-0.413,10.05-10.668.486-20.262-19.856-0.248,9.644-0.248,9.726-9.841.486-21.171-20.748v19.857H562.981l-20.675-20.262-0.413,10.293-0.414,10.374-9.841.486L510.55,215.24,510.3,225.29l-0.248,10.131-9.842.486L479.124,215.24l-0.248,10.05-0.248,10.131-9.014.486-21.171-20.748v19.857H437.692L427.6,224.8l-10.172-10.212-0.414,10.374L416.6,235.421l-9.841.486L385.675,215.24l-0.249,10.05-0.248,10.131-10.916.486L354.58,215.321l-0.827,20.1-4.962.243-4.962.162L333.74,225.533h0Z"/>
  <path id="Square" class="cls-5" d="M343.463,159.064V143.576H312.817V132.693l20.541,0.167,20.459,0.251,0.248,15.739,0.166,15.655h20.707L375.1,148.85l0.249-15.739h41.413l0.249,15.739,0.166,15.655h20.706V132.693l20.542,0.167,20.458,0.251,0.248,15.739,0.166,15.655h20.707l0.166-15.655,0.248-15.739h41.414l0.248,15.739,0.166,15.655h20.707l0.165-15.655,0.249-15.739h41.414l0.248,15.739,0.166,15.655H625.9l0.166-15.655,0.249-15.739h41.413l0.249,15.739,0.165,15.655h20.707V132.693l20.541,0.167,20.459,0.251L730.1,148.85l0.166,15.655h20.707l0.165-15.655,0.249-15.739H792.8l0.248,15.739,0.166,15.655h20.707V133.53H824.69v41.022H782.448V143.576H761.741v30.976H719.5V143.576H699.621v30.976H657.379V143.576H636.672v30.976H594.43V143.576H573.723v30.976H531.481V143.576H510.774v30.976H468.532V143.576H448.654v30.976H406.412V143.576H385.705v30.976H343.463V159.064h0Z"/>
  <path id="Polygon_1" data-name="Polygon 1" class="cls-6" d="M337.088,90.013L483.123,341.987H191.053Z"/>
  <path id="Sine" class="cls-7" d="M366.383,246.384s0-31.5-31.769-31.5-31.769,31.5-31.769,31.5,0,31.5-31.768,31.5-31.769-31.5-31.769-31.5,0-31.5-31.769-31.5-31.769,31.5-31.769,31.5,0,31.5-31.769,31.5"/>
  <path class="cls-8" d="M326.625,198.91h56.031V299.262H326.625V198.91Z"/>
</svg>
